HIERARCHY
ROOT Hips
{
 OFFSET 0.000000 0.000000 0.000000
 CHANNELS 6 Xposition Yposition Zposition Yrotation Xrotation Zrotation
 JOINT Chest
 {
  OFFSET 0.000000 9.585900 0.002600
  CHANNELS 3 Yrotation Xrotation Zrotation
  JOINT Chest2
  {
   OFFSET 0.000000 9.601200 -0.005300
   CHANNELS 3 Yrotation Xrotation Zrotation
   JOINT Chest3
   {
    OFFSET 0.000000 9.561800 0.000000
    CHANNELS 3 Yrotation Xrotation Zrotation
    JOINT Chest4
    {
     OFFSET 0.000000 9.552100 0.000000
     CHANNELS 3 Yrotation Xrotation Zrotation
     JOINT Neck
     {
      OFFSET 0.000000 14.453000 0.000000
      CHANNELS 3 Yrotation Xrotation Zrotation
      JOINT Head
      {
       OFFSET 0.000000 8.936500 -0.011300
       CHANNELS 3 Yrotation Xrotation Zrotation
       End Site
       {
        OFFSET 0.000000 17.073600 -0.006000
       }
      }
     }
     JOINT RightCollar
     {
      OFFSET -2.921100 9.558500 0.000000
      CHANNELS 3 Yrotation Xrotation Zrotation
      JOINT RightShoulder
      {
       OFFSET -13.519700 0.000000 0.000000
       CHANNELS 3 Yrotation Xrotation Zrotation
       JOINT RightElbow
       {
        OFFSET 0.000000 -29.696600 0.000000
        CHANNELS 3 Yrotation Xrotation Zrotation
        JOINT RightWrist
        {
         OFFSET 0.000000 -24.004700 0.000000
         CHANNELS 3 Yrotation Xrotation Zrotation
         End Site
         {
          OFFSET 0.000000 -17.728500 0.000000
         }
        }
       }
      }
     }
     JOINT LeftCollar
     {
      OFFSET 2.921100 9.558500 0.000000
      CHANNELS 3 Yrotation Xrotation Zrotation
      JOINT LeftShoulder
      {
       OFFSET 13.519700 0.000000 0.000000
       CHANNELS 3 Yrotation Xrotation Zrotation
       JOINT LeftElbow
       {
        OFFSET 0.000000 -29.696600 0.000000
        CHANNELS 3 Yrotation Xrotation Zrotation
        JOINT LeftWrist
        {
         OFFSET 0.000000 -24.004700 0.000000
         CHANNELS 3 Yrotation Xrotation Zrotation
         End Site
         {
          OFFSET 0.000000 -17.728500 0.000000
         }
        }
       }
      }
     }
    }
   }
  }
 }
 JOINT RightHip
 {
  OFFSET -7.771700 -0.012900 -0.001300
  CHANNELS 3 Yrotation Xrotation Zrotation
  JOINT RightKnee
  {
   OFFSET 0.000000 -40.869800 0.001200
   CHANNELS 3 Yrotation Xrotation Zrotation
   JOINT RightAnkle
   {
    OFFSET 0.000000 -39.717900 0.002100
    CHANNELS 3 Yrotation Xrotation Zrotation
    JOINT RightToe
    {
     OFFSET 0.000000 -4.965400 11.033500
     CHANNELS 3 Yrotation Xrotation Zrotation
     End Site
     {
      OFFSET 0.000000 -1.423100 5.872300
     }
    }
   }
  }
 }
 JOINT LeftHip
 {
  OFFSET 7.771700 -0.012900 -0.001300
  CHANNELS 3 Yrotation Xrotation Zrotation
  JOINT LeftKnee
  {
   OFFSET 0.000000 -40.869800 0.001200
   CHANNELS 3 Yrotation Xrotation Zrotation
   JOINT LeftAnkle
   {
    OFFSET 0.000000 -39.717900 0.002100
    CHANNELS 3 Yrotation Xrotation Zrotation
    JOINT LeftToe
    {
     OFFSET 0.000000 -4.965400 11.033500
     CHANNELS 3 Yrotation Xrotation Zrotation
     End Site
     {
      OFFSET 0.000000 -1.423100 5.872300
     }
    }
   }
  }
 }
}
MOTION
Frames: 15
Frame Time: 0.008333
0.000000 85.388000 0.000000 0.000000 -5.767877 0.000000 0.000000 11.653817 0.000000 0.000000 -5.885947 0.000000 0.000000 -0.000000 0.000000 0.000000 -0.000000 0.000000 0.000000 12.528835 0.000000 0.000000 0.711642 0.000000 0.000000 -0.000000 0.000000 0.000000 0.000000 -90.000000 0.000000 -2.309062 0.000000 0.000000 2.309062 0.000000 0.000000 -0.000000 0.000000 0.000000 -0.000000 90.000000 0.000000 -2.309062 0.000000 0.000000 2.309062 0.000000 0.000000 8.520406 0.000000 0.000000 1.905762 0.000000 -0.000000 -4.658285 0.000000 0.000000 -0.000000 0.000000 0.000000 8.520406 0.000000 0.000000 1.905762 0.000000 -0.000000 -4.658285 0.000000 0.000000 -0.000000 0.000000
-40.041626 43.893311 33.974528 177.552881 -23.917135 0.056762 0.207840 16.042768 2.872541 -0.018393 1.604125 0.342440 -0.025032 2.686616 0.579026 0.165173 14.169073 3.066190 -2.543364 18.805031 -8.123807 -0.888744 -5.552218 -8.259688 10.146476 -1.138323 -4.321953 -14.727873 -19.869996 -18.410269 -112.901864 -49.248683 141.050341 -8.783082 3.070011 21.524617 -17.186462 -1.114343 -2.091554 1.630200 -11.289646 8.596811 121.635028 -53.750928 -164.758661 4.986681 1.842443 -21.513195 -2.017392 -68.772283 9.573794 -152.713764 69.801378 -152.081079 -13.494157 -23.165397 9.016971 0.248256 -0.928895 0.149756 5.912523 -57.219363 -7.722989 175.606377 63.390665 175.828764 -2.092398 -35.729224 3.953113 0.025904 0.120546 0.006169
-40.043399 43.895919 33.969627 177.531196 -24.043661 0.074013 0.216820 16.125493 2.857390 -0.014289 1.623269 0.340532 -0.029820 2.722171 0.582904 0.174403 14.276351 3.075190 -3.305371 18.844364 -8.326820 -1.675921 -5.491034 -8.318430 10.179339 -1.090169 -4.272350 -14.689160 -19.864592 -18.123762 -111.820635 -49.429626 139.675171 -8.909110 3.011912 21.838744 -17.204984 -1.088209 -2.171207 1.589775 -11.279670 8.563685 121.596427 -53.755348 -164.663459 4.879858 1.757086 -21.646148 -1.991325 -68.645930 9.576618 -152.680228 69.799694 -152.068088 -13.495553 -23.125980 9.022864 0.315831 -0.976528 0.148980 5.908988 -57.084588 -7.695108 175.606609 63.390164 175.814501 -2.092259 -35.735311 3.955739 0.016951 0.116933 0.007102
-40.043818 43.898137 33.966530 177.511135 -24.176414 0.079381 0.228503 16.257958 2.863633 -0.015000 1.638055 0.345368 -0.029597 2.791481 0.590032 0.179484 14.377102 3.077367 -4.050931 18.858566 -8.519503 -2.450991 -5.454234 -8.372483 10.213865 -1.086189 -4.246229 -14.619171 -19.838575 -17.824732 -110.663259 -49.598662 138.196875 -9.067282 2.975060 22.019803 -17.218457 -1.121903 -2.248845 1.579776 -11.269891 8.518655 121.583531 -53.762758 -164.609761 4.784746 1.704650 -21.905305 -1.973707 -68.511771 9.586852 -152.608903 69.795252 -152.013397 -13.456596 -23.079493 9.012307 0.301650 -1.018189 0.159098 5.886860 -56.947634 -7.645286 175.618779 63.388330 175.815846 -2.100091 -35.742450 3.962177 0.018899 0.116548 0.007842
-40.045423 43.901337 33.962304 177.512374 -24.330542 0.080150 0.223162 16.417264 2.864636 -0.015662 1.649260 0.347904 -0.031367 2.873220 0.600036 0.182248 14.499178 3.082105 -4.772475 18.862383 -8.693500 -3.207854 -5.426432 -8.413782 10.251503 -1.101810 -4.227309 -14.524617 -19.793348 -17.511055 -109.430378 -49.753034 136.625381 -9.258296 2.956712 22.044947 -17.226481 -1.182746 -2.318376 1.605263 -11.264645 8.458800 121.557308 -53.765350 -164.578313 4.673393 1.667102 -22.217626 -1.960489 -68.361219 9.577132 -152.542935 69.784831 -151.960867 -13.411278 -23.001582 8.973696 0.283228 -1.089672 0.186131 5.849647 -56.789832 -7.600759 175.640361 63.388585 175.825095 -2.105418 -35.747017 3.970653 0.019130 0.116883 0.008553
-40.047264 43.901657 33.965687 177.479036 -24.445450 0.091093 0.251531 16.540945 2.869552 -0.019096 1.690985 0.354638 -0.028450 2.924616 0.602051 0.184632 14.623610 3.084077 -5.467294 18.868721 -8.843122 -3.944896 -5.394017 -8.436012 10.291019 -1.112763 -4.201644 -14.416757 -19.730711 -17.183726 -108.137192 -49.899030 134.972980 -9.482198 2.944199 21.919193 -17.234830 -1.240546 -2.381981 1.669172 -11.270146 8.393661 121.485568 -53.758357 -164.546370 4.536124 1.633126 -22.516722 -1.933446 -68.249580 9.588979 -152.372182 69.777028 -151.824033 -13.326413 -22.926520 8.963800 0.246003 -1.128527 0.185067 5.842796 -56.675400 -7.555594 175.663690 63.389685 175.835713 -2.112401 -35.750452 3.979210 0.019413 0.120873 0.009486
-40.048644 43.904120 33.965688 177.474375 -24.590602 0.084927 0.257062 16.701526 2.879568 -0.019671 1.725365 0.358891 -0.026826 2.966301 0.600783 0.188970 14.742063 3.082157 -6.132587 18.888380 -8.965363 -4.659550 -5.345515 -8.435851 10.332394 -1.100157 -4.161440 -14.306994 -19.652402 -16.847553 -106.801567 -50.043271 133.247259 -9.738792 2.922155 21.670551 -17.243132 -1.274711 -2.443468 1.755962 -11.287139 8.334911 121.364015 -53.739234 -164.502896 4.389314 1.597139 -22.754222 -1.942982 -68.105408 9.607397 -152.322163 69.776559 -151.783661 -13.304107 -22.861940 8.936601 0.250961 -1.160995 0.196740 5.794218 -56.531795 -7.494084 175.687378 63.390270 175.845155 -2.114945 -35.752937 3.985487 0.020409 0.122307 0.009789
-40.050273 43.906649 33.966904 177.466070 -24.733776 0.078402 0.267810 16.848421 2.874190 -0.020558 1.763797 0.374582 -0.024898 2.965945 0.601763 0.191475 14.887818 3.071677 -6.763859 18.923689 -9.059818 -5.346451 -5.278885 -8.413295 10.380183 -1.056307 -4.105106 -14.200867 -19.560949 -16.509613 -105.444680 -50.183477 131.457492 -10.022966 2.885405 21.320322 -17.247525 -1.282414 -2.501716 1.844116 -11.308252 8.286543 121.215921 -53.708135 -164.451201 4.252747 1.560300 -22.903792 -1.946339 -67.964323 9.627127 -152.274606 69.776618 -151.741877 -13.300599 -22.805202 8.918479 0.267518 -1.174290 0.202573 5.732379 -56.390699 -7.418617 175.719262 63.392277 175.854143 -2.113825 -35.757680 3.989023 0.020335 0.126235 0.011052
-40.052885 43.909162 33.969436 177.452323 -24.873250 0.077263 0.281002 16.976784 2.863601 -0.016803 1.800807 0.385193 -0.028587 3.024486 0.595161 0.193497 14.977218 3.061402 -7.359466 18.967481 -9.126784 -6.003101 -5.202722 -8.368366 10.438206 -0.988893 -4.030074 -14.094256 -19.455445 -16.180461 -104.085238 -50.304273 129.619043 -10.331051 2.836896 20.866202 -17.246151 -1.274319 -2.551647 1.917837 -11.323841 8.248783 121.067369 -53.671558 -164.399619 4.136810 1.521486 -22.970301 -1.943775 -67.823856 9.646988 -152.237212 69.781189 -151.717448 -13.306725 -22.771390 8.921808 0.260455 -1.159879 0.190031 5.694249 -56.251815 -7.361755 175.738157 63.395878 175.857107 -2.115570 -35.759926 3.996136 0.019491 0.129175 0.010035
-40.053444 43.913404 33.969561 177.458776 -25.034363 0.054337 0.275734 17.125062 2.859832 -0.012891 1.831037 0.392508 -0.034311 3.088008 0.587177 0.193131 15.069239 3.046726 -7.916292 19.010884 -9.166275 -6.625344 -5.127692 -8.301268 10.511496 -0.909034 -3.935379 -13.977316 -19.333540 -15.865364 -102.733665 -50.386124 127.751722 -10.655716 2.778507 20.282914 -17.234240 -1.264917 -2.590214 1.961599 -11.326954 8.222947 120.933749 -53.635520 -164.348686 4.044038 1.481427 -22.987103 -1.986008 -67.655531 9.701337 -152.226357 69.787578 -151.714542 -13.330730 -22.751563 8.915600 0.265414 -1.139672 0.191102 5.629429 -56.092861 -7.290283 175.736013 63.396359 175.852354 -2.125090 -35.760703 4.002116 0.018858 0.129163 0.008259
-40.056107 43.917805 33.970384 177.463255 -25.195881 0.043652 0.263364 17.278414 2.838682 -0.006665 1.853864 0.396849 -0.033724 3.107053 0.598169 0.172422 15.219834 3.009186 -8.429687 19.047986 -9.180924 -7.206701 -5.060915 -8.215590 10.602274 -0.826011 -3.829764 -13.836055 -19.196344 -15.559786 -101.410415 -50.429711 125.878537 -10.992659 2.712770 19.543582 -17.208979 -1.269567 -2.619369 1.969601 -11.312982 8.207483 120.820158 -53.600415 -164.294653 3.970543 1.446965 -22.991860 -2.004409 -67.489431 9.725164 -152.212453 69.788355 -151.704108 -13.364476 -22.748933 8.914112 0.271164 -1.111585 0.187854 5.573966 -55.932732 -7.232802 175.741503 63.400235 175.846310 -2.130238 -35.756009 4.010024 0.019364 0.127085 0.006102
-40.059478 43.922204 33.972157 177.461729 -25.357095 0.039157 0.255275 17.436899 2.819306 -0.008038 1.879437 0.391044 -0.043574 3.186064 0.590656 0.167982 15.320475 2.990289 -8.899852 19.077018 -9.175504 -7.745730 -5.004450 -8.116274 10.703799 -0.750825 -3.724937 -13.672229 -19.048460 -15.253282 -100.144608 -50.464012 124.018527 -11.355124 2.638171 18.649992 -17.176235 -1.293818 -2.640170 1.949710 -11.283845 8.195932 120.714758 -53.566233 -164.231528 3.910818 1.422473 -23.007742 -2.007683 -67.321421 9.734820 -152.263686 69.798966 -151.757116 -13.400416 -22.778444 8.920440 0.297566 -1.064901 0.172671 5.507335 -55.771817 -7.169173 175.752112 63.406564 175.833698 -2.126608 -35.754873 4.018724 0.019078 0.129991 0.000100
-40.064562 43.928569 33.970580 177.490076 -25.546716 0.032864 0.223822 17.626141 2.805160 -0.022123 1.911163 0.369031 -0.048943 3.269762 0.584161 0.165733 15.424411 2.971495 -9.327926 19.098567 -9.152331 -8.242574 -4.957968 -8.005475 10.807365 -0.691444 -3.624825 -13.514863 -18.896657 -14.936679 -98.941210 -50.521800 122.177516 -11.759653 2.541947 17.623937 -17.147405 -1.331079 -2.650970 1.911071 -11.244853 8.180944 120.606092 -53.536969 -164.155832 3.861589 1.408256 -23.040041 -2.005666 -67.129649 9.704434 -152.387798 69.819293 -151.868656 -13.489872 -22.745264 8.912257 0.366591 -1.095830 0.187056 5.441467 -55.579180 -7.129386 175.776053 63.416802 175.837165 -2.124678 -35.750205 4.032701 0.017520 0.130843 -0.003158
-40.066974 43.932587 33.974841 177.486647 -25.705582 0.022487 0.217016 17.786626 2.784034 -0.023513 1.947123 0.369599 -0.048651 3.334609 0.586171 0.158000 15.552325 2.946901 -9.709904 19.113481 -9.113520 -8.691518 -4.921144 -7.886274 10.908011 -0.647801 -3.529064 -13.397361 -18.749865 -14.611583 -97.767446 -50.608256 120.347244 -12.201549 2.416022 16.487440 -17.130964 -1.372224 -2.654914 1.864556 -11.199322 8.159654 120.496392 -53.515645 -164.071955 3.821207 1.405201 -23.085845 -2.029217 -66.965517 9.736504 -152.407933 69.830237 -151.892223 -13.516606 -22.770925 8.912623 0.376322 -1.068713 0.190803 5.388862 -55.422511 -7.071217 175.782130 63.423113 175.833523 -2.125398 -35.747285 4.039558 0.016851 0.133805 -0.006990
-40.074733 43.936153 33.980588 177.481422 -25.860296 0.043510 0.199343 17.953347 2.716495 -0.019152 1.979245 0.383516 -0.046925 3.397242 0.592292 0.151413 15.680316 2.924983 -10.040839 19.123927 -9.063265 -9.085386 -4.891913 -7.764239 11.001098 -0.612857 -3.436239 -13.331670 -18.617324 -14.290398 -96.583935 -50.704781 118.516945 -12.660839 2.254775 15.252622 -17.130522 -1.408357 -2.659556 1.824257 -11.151380 8.133617 120.389188 -53.497281 -163.984581 3.783689 1.414128 -23.139962 -1.983955 -66.805888 9.700241 -152.391503 69.839768 -151.878991 -13.603326 -22.809717 8.940895 0.386988 -1.031960 0.183079 5.393270 -55.264562 -7.078924 175.772220 63.437019 175.815301 -2.130356 -35.738324 4.050842 0.017381 0.137045 -0.011660
